<?xml version="1.0" encoding="utf-8" standalone="no"?>
<!DOCTYPE svg PUBLIC "-//W3C//DTD SVG 1.1//EN"
  "http://www.w3.org/Graphics/SVG/1.1/DTD/svg11.dtd">
<!-- Created with matplotlib (https://matplotlib.org/) -->
<svg height="320pt" version="1.1" viewBox="0 0 320 320" width="320pt" xmlns="http://www.w3.org/2000/svg" xmlns:xlink="http://www.w3.org/1999/xlink">
 <defs>
  <style type="text/css">
*{stroke-linecap:butt;stroke-linejoin:round;}
  </style>
 </defs>
 <g id="figure_1">
  <g id="patch_1">
   <path d="M 0 320 
L 320 320 
L 320 0 
L 0 0 
z
" style="fill:#ffffff;"/>
  </g>
  <g id="axes_1">
   <g id="patch_2">
    <path d="M 56.928125 92.78125 
L 305.7 92.78125 
L 305.7 25.918125 
L 56.928125 25.918125 
z
" style="fill:#ffffff;"/>
   </g>
   <g id="matplotlib.axis_1">
    <g id="text_1">
     <!-- date -->
     <defs>
      <path d="M 45.40625 46.390625 
L 45.40625 75.984375 
L 54.390625 75.984375 
L 54.390625 0 
L 45.40625 0 
L 45.40625 8.203125 
Q 42.578125 3.328125 38.25 0.953125 
Q 33.9375 -1.421875 27.875 -1.421875 
Q 17.96875 -1.421875 11.734375 6.484375 
Q 5.515625 14.40625 5.515625 27.296875 
Q 5.515625 40.1875 11.734375 48.09375 
Q 17.96875 56 27.875 56 
Q 33.9375 56 38.25 53.625 
Q 42.578125 51.265625 45.40625 46.390625 
z
M 14.796875 27.296875 
Q 14.796875 17.390625 18.875 11.75 
Q 22.953125 6.109375 30.078125 6.109375 
Q 37.203125 6.109375 41.296875 11.75 
Q 45.40625 17.390625 45.40625 27.296875 
Q 45.40625 37.203125 41.296875 42.84375 
Q 37.203125 48.484375 30.078125 48.484375 
Q 22.953125 48.484375 18.875 42.84375 
Q 14.796875 37.203125 14.796875 27.296875 
z
" id="DejaVuSans-100"/>
      <path d="M 34.28125 27.484375 
Q 23.390625 27.484375 19.1875 25 
Q 14.984375 22.515625 14.984375 16.5 
Q 14.984375 11.71875 18.140625 8.90625 
Q 21.296875 6.109375 26.703125 6.109375 
Q 34.1875 6.109375 38.703125 11.40625 
Q 43.21875 16.703125 43.21875 25.484375 
L 43.21875 27.484375 
z
M 52.203125 31.203125 
L 52.203125 0 
L 43.21875 0 
L 43.21875 8.296875 
Q 40.140625 3.328125 35.546875 0.953125 
Q 30.953125 -1.421875 24.3125 -1.421875 
Q 15.921875 -1.421875 10.953125 3.296875 
Q 6 8.015625 6 15.921875 
Q 6 25.140625 12.171875 29.828125 
Q 18.359375 34.515625 30.609375 34.515625 
L 43.21875 34.515625 
L 43.21875 35.40625 
Q 43.21875 41.609375 39.140625 45 
Q 35.0625 48.390625 27.6875 48.390625 
Q 23 48.390625 18.546875 47.265625 
Q 14.109375 46.140625 10.015625 43.890625 
L 10.015625 52.203125 
Q 14.9375 54.109375 19.578125 55.046875 
Q 24.21875 56 28.609375 56 
Q 40.484375 56 46.34375 49.84375 
Q 52.203125 43.703125 52.203125 31.203125 
z
" id="DejaVuSans-97"/>
      <path d="M 18.3125 70.21875 
L 18.3125 54.6875 
L 36.8125 54.6875 
L 36.8125 47.703125 
L 18.3125 47.703125 
L 18.3125 18.015625 
Q 18.3125 11.328125 20.140625 9.421875 
Q 21.96875 7.515625 27.59375 7.515625 
L 36.8125 7.515625 
L 36.8125 0 
L 27.59375 0 
Q 17.1875 0 13.234375 3.875 
Q 9.28125 7.765625 9.28125 18.015625 
L 9.28125 47.703125 
L 2.6875 47.703125 
L 2.6875 54.6875 
L 9.28125 54.6875 
L 9.28125 70.21875 
z
" id="DejaVuSans-116"/>
      <path d="M 56.203125 29.59375 
L 56.203125 25.203125 
L 14.890625 25.203125 
Q 15.484375 15.921875 20.484375 11.0625 
Q 25.484375 6.203125 34.421875 6.203125 
Q 39.59375 6.203125 44.453125 7.46875 
Q 49.3125 8.734375 54.109375 11.28125 
L 54.109375 2.78125 
Q 49.265625 0.734375 44.1875 -0.34375 
Q 39.109375 -1.421875 33.890625 -1.421875 
Q 20.796875 -1.421875 13.15625 6.1875 
Q 5.515625 13.8125 5.515625 26.8125 
Q 5.515625 40.234375 12.765625 48.109375 
Q 20.015625 56 32.328125 56 
Q 43.359375 56 49.78125 48.890625 
Q 56.203125 41.796875 56.203125 29.59375 
z
M 47.21875 32.234375 
Q 47.125 39.59375 43.09375 43.984375 
Q 39.0625 48.390625 32.421875 48.390625 
Q 24.90625 48.390625 20.390625 44.140625 
Q 15.875 39.890625 15.1875 32.171875 
z
" id="DejaVuSans-101"/>
     </defs>
     <g transform="translate(170.039062 104.379688)scale(0.1 -0.1)">
      <use xlink:href="#DejaVuSans-100"/>
      <use x="63.476562" xlink:href="#DejaVuSans-97"/>
      <use x="124.755859" xlink:href="#DejaVuSans-116"/>
      <use x="163.964844" xlink:href="#DejaVuSans-101"/>
     </g>
    </g>
   </g>
   <g id="matplotlib.axis_2">
    <g id="ytick_1">
     <g id="line2d_1">
      <defs>
       <path d="M 0 0 
L -3.5 0 
" id="me277efe4b2" style="stroke:#000000;stroke-width:0.8;"/>
      </defs>
      <g>
       <use style="stroke:#000000;stroke-width:0.8;" x="56.928125" xlink:href="#me277efe4b2" y="65.011051"/>
      </g>
     </g>
     <g id="text_2">
      <!-- 1000 -->
      <defs>
       <path d="M 12.40625 8.296875 
L 28.515625 8.296875 
L 28.515625 63.921875 
L 10.984375 60.40625 
L 10.984375 69.390625 
L 28.421875 72.90625 
L 38.28125 72.90625 
L 38.28125 8.296875 
L 54.390625 8.296875 
L 54.390625 0 
L 12.40625 0 
z
" id="DejaVuSans-49"/>
       <path d="M 31.78125 66.40625 
Q 24.171875 66.40625 20.328125 58.90625 
Q 16.5 51.421875 16.5 36.375 
Q 16.5 21.390625 20.328125 13.890625 
Q 24.171875 6.390625 31.78125 6.390625 
Q 39.453125 6.390625 43.28125 13.890625 
Q 47.125 21.390625 47.125 36.375 
Q 47.125 51.421875 43.28125 58.90625 
Q 39.453125 66.40625 31.78125 66.40625 
z
M 31.78125 74.21875 
Q 44.046875 74.21875 50.515625 64.515625 
Q 56.984375 54.828125 56.984375 36.375 
Q 56.984375 17.96875 50.515625 8.265625 
Q 44.046875 -1.421875 31.78125 -1.421875 
Q 19.53125 -1.421875 13.0625 8.265625 
Q 6.59375 17.96875 6.59375 36.375 
Q 6.59375 54.828125 13.0625 64.515625 
Q 19.53125 74.21875 31.78125 74.21875 
z
" id="DejaVuSans-48"/>
      </defs>
      <g transform="translate(24.478125 68.81027)scale(0.1 -0.1)">
       <use xlink:href="#DejaVuSans-49"/>
       <use x="63.623047" xlink:href="#DejaVuSans-48"/>
       <use x="127.246094" xlink:href="#DejaVuSans-48"/>
       <use x="190.869141" xlink:href="#DejaVuSans-48"/>
      </g>
     </g>
    </g>
    <g id="ytick_2">
     <g id="line2d_2">
      <g>
       <use style="stroke:#000000;stroke-width:0.8;" x="56.928125" xlink:href="#me277efe4b2" y="30.327697"/>
      </g>
     </g>
     <g id="text_3">
      <!-- 2000 -->
      <defs>
       <path d="M 19.1875 8.296875 
L 53.609375 8.296875 
L 53.609375 0 
L 7.328125 0 
L 7.328125 8.296875 
Q 12.9375 14.109375 22.625 23.890625 
Q 32.328125 33.6875 34.8125 36.53125 
Q 39.546875 41.84375 41.421875 45.53125 
Q 43.3125 49.21875 43.3125 52.78125 
Q 43.3125 58.59375 39.234375 62.25 
Q 35.15625 65.921875 28.609375 65.921875 
Q 23.96875 65.921875 18.8125 64.3125 
Q 13.671875 62.703125 7.8125 59.421875 
L 7.8125 69.390625 
Q 13.765625 71.78125 18.9375 73 
Q 24.125 74.21875 28.421875 74.21875 
Q 39.75 74.21875 46.484375 68.546875 
Q 53.21875 62.890625 53.21875 53.421875 
Q 53.21875 48.921875 51.53125 44.890625 
Q 49.859375 40.875 45.40625 35.40625 
Q 44.1875 33.984375 37.640625 27.21875 
Q 31.109375 20.453125 19.1875 8.296875 
z
" id="DejaVuSans-50"/>
      </defs>
      <g transform="translate(24.478125 34.126916)scale(0.1 -0.1)">
       <use xlink:href="#DejaVuSans-50"/>
       <use x="63.623047" xlink:href="#DejaVuSans-48"/>
       <use x="127.246094" xlink:href="#DejaVuSans-48"/>
       <use x="190.869141" xlink:href="#DejaVuSans-48"/>
      </g>
     </g>
    </g>
    <g id="text_4">
     <!-- price -->
     <defs>
      <path d="M 18.109375 8.203125 
L 18.109375 -20.796875 
L 9.078125 -20.796875 
L 9.078125 54.6875 
L 18.109375 54.6875 
L 18.109375 46.390625 
Q 20.953125 51.265625 25.265625 53.625 
Q 29.59375 56 35.59375 56 
Q 45.5625 56 51.78125 48.09375 
Q 58.015625 40.1875 58.015625 27.296875 
Q 58.015625 14.40625 51.78125 6.484375 
Q 45.5625 -1.421875 35.59375 -1.421875 
Q 29.59375 -1.421875 25.265625 0.953125 
Q 20.953125 3.328125 18.109375 8.203125 
z
M 48.6875 27.296875 
Q 48.6875 37.203125 44.609375 42.84375 
Q 40.53125 48.484375 33.40625 48.484375 
Q 26.265625 48.484375 22.1875 42.84375 
Q 18.109375 37.203125 18.109375 27.296875 
Q 18.109375 17.390625 22.1875 11.75 
Q 26.265625 6.109375 33.40625 6.109375 
Q 40.53125 6.109375 44.609375 11.75 
Q 48.6875 17.390625 48.6875 27.296875 
z
" id="DejaVuSans-112"/>
      <path d="M 41.109375 46.296875 
Q 39.59375 47.171875 37.8125 47.578125 
Q 36.03125 48 33.890625 48 
Q 26.265625 48 22.1875 43.046875 
Q 18.109375 38.09375 18.109375 28.8125 
L 18.109375 0 
L 9.078125 0 
L 9.078125 54.6875 
L 18.109375 54.6875 
L 18.109375 46.1875 
Q 20.953125 51.171875 25.484375 53.578125 
Q 30.03125 56 36.53125 56 
Q 37.453125 56 38.578125 55.875 
Q 39.703125 55.765625 41.0625 55.515625 
z
" id="DejaVuSans-114"/>
      <path d="M 9.421875 54.6875 
L 18.40625 54.6875 
L 18.40625 0 
L 9.421875 0 
z
M 9.421875 75.984375 
L 18.40625 75.984375 
L 18.40625 64.59375 
L 9.421875 64.59375 
z
" id="DejaVuSans-105"/>
      <path d="M 48.78125 52.59375 
L 48.78125 44.1875 
Q 44.96875 46.296875 41.140625 47.34375 
Q 37.3125 48.390625 33.40625 48.390625 
Q 24.65625 48.390625 19.8125 42.84375 
Q 14.984375 37.3125 14.984375 27.296875 
Q 14.984375 17.28125 19.8125 11.734375 
Q 24.65625 6.203125 33.40625 6.203125 
Q 37.3125 6.203125 41.140625 7.25 
Q 44.96875 8.296875 48.78125 10.40625 
L 48.78125 2.09375 
Q 45.015625 0.34375 40.984375 -0.53125 
Q 36.96875 -1.421875 32.421875 -1.421875 
Q 20.0625 -1.421875 12.78125 6.34375 
Q 5.515625 14.109375 5.515625 27.296875 
Q 5.515625 40.671875 12.859375 48.328125 
Q 20.21875 56 33.015625 56 
Q 37.15625 56 41.109375 55.140625 
Q 45.0625 54.296875 48.78125 52.59375 
z
" id="DejaVuSans-99"/>
     </defs>
     <g transform="translate(18.398438 71.794219)rotate(-90)scale(0.1 -0.1)">
      <use xlink:href="#DejaVuSans-112"/>
      <use x="63.476562" xlink:href="#DejaVuSans-114"/>
      <use x="104.589844" xlink:href="#DejaVuSans-105"/>
      <use x="132.373047" xlink:href="#DejaVuSans-99"/>
      <use x="187.353516" xlink:href="#DejaVuSans-101"/>
     </g>
    </g>
   </g>
   <g id="line2d_3">
    <path clip-path="url(#p9d29f10cfd)" d="M 68.235938 87.178224 
L 68.359927 87.146315 
L 68.483916 87.581244 
L 68.731894 87.300309 
L 69.227851 87.428637 
L 69.35184 87.646102 
L 69.475829 87.562168 
L 69.599818 87.667606 
L 69.971786 87.493495 
L 70.219764 87.215335 
L 70.963699 87.073133 
L 71.087688 86.779365 
L 72.079602 86.809193 
L 72.203591 86.731849 
L 72.575559 86.68676 
L 72.699548 86.557391 
L 73.071515 87.186894 
L 73.443483 87.491067 
L 73.567472 87.391873 
L 73.81545 87.955131 
L 74.311407 88.028139 
L 74.435396 87.798362 
L 74.559385 87.834086 
L 74.807364 88.491682 
L 75.179331 88.673423 
L 75.427309 88.186295 
L 75.675288 88.882564 
L 76.171245 88.731691 
L 76.419223 88.425437 
L 77.039169 88.272483 
L 77.163158 88.436882 
L 77.287147 88.000913 
L 77.411136 89.156562 
L 77.783104 89.408016 
L 78.27906 89.011586 
L 78.651028 88.940832 
L 78.899006 89.542241 
L 79.022995 89.694501 
L 79.642941 89.128469 
L 79.89092 89.456226 
L 80.014909 89.369171 
L 80.386876 89.401947 
L 80.634855 89.115636 
L 80.758844 89.119104 
L 80.882833 88.864875 
L 81.502779 88.937016 
L 81.626768 88.811463 
L 82.370703 89.054246 
L 82.618681 88.260344 
L 82.990649 88.335607 
L 83.238627 88.068545 
L 83.362617 88.390754 
L 83.982562 88.400812 
L 84.106552 88.096986 
L 84.35453 88.450062 
L 84.726497 88.344625 
L 84.850487 88.451449 
L 84.974476 88.337688 
L 85.222454 88.437229 
L 85.594422 88.429946 
L 85.8424 88.150051 
L 85.966389 87.989051 
L 86.462346 88.125773 
L 86.586335 88.463589 
L 86.710324 88.249939 
L 86.834313 88.32104 
L 86.958302 87.687028 
L 87.454259 87.401237 
L 87.578248 87.3506 
L 87.702238 87.470119 
L 87.826227 87.254874 
L 88.570162 87.256608 
L 88.694151 88.456652 
L 89.190108 88.595732 
L 89.314097 88.508677 
L 89.562075 89.044535 
L 90.058032 88.8621 
L 90.182021 88.807647 
L 90.30601 88.892275 
L 90.429999 88.706719 
L 90.925956 88.619317 
L 91.297924 88.122998 
L 92.041859 88.14797 
L 92.165848 88.193752 
L 92.537815 88.109472 
L 92.785794 87.791772 
L 93.033772 87.935361 
L 93.529729 87.819519 
L 93.653718 87.936748 
L 93.901696 87.680785 
L 94.273664 87.820906 
L 94.397653 88.257569 
L 94.76962 88.207625 
L 95.141588 88.460814 
L 95.265577 88.326589 
L 95.389566 88.456999 
L 95.513555 88.422315 
L 95.637545 88.203117 
L 96.133501 88.469832 
L 96.25749 88.310982 
L 96.38148 88.528793 
L 96.505469 88.484399 
L 97.001425 88.511105 
L 97.125415 88.683828 
L 97.249404 88.650879 
L 97.373393 88.5007 
L 97.74536 88.519429 
L 97.86935 88.700476 
L 97.993339 88.502087 
L 98.241317 88.894356 
L 98.985252 89.190205 
L 99.481209 89.074016 
L 99.605198 88.757703 
L 99.853176 88.832273 
L 99.977166 89.738202 
L 100.349133 89.637273 
L 100.473122 89.442353 
L 100.597111 89.493337 
L 100.84509 89.100028 
L 101.341046 89.191939 
L 101.589025 89.405935 
L 101.713014 89.294255 
L 102.084981 89.112167 
L 102.208971 88.872852 
L 102.33296 88.890194 
L 102.456949 88.717818 
L 102.580938 88.324508 
L 103.076895 88.424743 
L 103.944819 88.074095 
L 104.068808 88.125079 
L 104.316787 87.949234 
L 105.184711 88.851349 
L 105.556678 89.059102 
L 105.680667 88.855857 
L 105.804657 89.086848 
L 106.052635 89.035517 
L 106.424603 89.078871 
L 106.548592 89.460735 
L 106.672581 89.328245 
L 106.920559 89.292868 
L 107.416516 89.071414 
L 107.540505 89.184309 
L 107.788483 88.974128 
L 108.28444 88.932161 
L 108.656408 88.993897 
L 109.028375 89.213443 
L 109.152364 89.452758 
L 109.400343 89.273445 
L 109.524332 89.395877 
L 109.896299 89.587329 
L 110.020289 89.471834 
L 110.144278 89.522818 
L 110.268267 89.742017 
L 110.392256 89.610567 
L 110.888213 89.655655 
L 111.26018 88.859673 
L 111.756137 89.055287 
L 111.880126 89.153787 
L 112.004115 88.880829 
L 112.128104 87.398116 
L 112.624061 87.085272 
L 112.74805 87.043652 
L 112.996029 86.71312 
L 113.367996 86.842142 
L 113.863953 86.45126 
L 114.483899 86.744682 
L 114.731877 86.38779 
L 115.227834 86.563634 
L 115.351823 86.328481 
L 115.475812 86.348251 
L 115.599801 86.509182 
L 116.095758 86.354841 
L 116.219747 86.420392 
L 116.343736 86.24316 
L 116.467725 86.511609 
L 116.839693 86.564675 
L 117.087671 86.987465 
L 117.21166 86.714507 
L 117.33565 86.841448 
L 118.203574 86.567103 
L 118.82352 86.828268 
L 118.947509 86.953475 
L 119.071498 86.842142 
L 119.443466 86.702368 
L 119.691444 86.85272 
L 120.31139 86.617394 
L 120.435379 86.708611 
L 120.683357 86.391952 
L 121.179314 86.432878 
L 121.303303 86.337499 
L 121.427292 86.395073 
L 121.551282 86.305243 
L 121.675271 86.668725 
L 122.171227 86.126971 
L 122.419206 86.168244 
L 122.543195 84.256845 
L 122.915162 84.483674 
L 123.039152 84.804495 
L 123.163141 84.802414 
L 123.28713 85.06566 
L 123.783087 85.021959 
L 124.031065 85.158612 
L 124.279043 84.652582 
L 124.775 84.745186 
L 124.898989 84.889122 
L 125.022978 84.701485 
L 125.146968 84.919297 
L 125.518935 84.945656 
L 125.642924 85.068088 
L 125.766913 84.993519 
L 125.890903 84.724029 
L 126.014892 84.862763 
L 126.510848 84.937679 
L 126.634838 84.731313 
L 126.758827 84.899527 
L 126.882816 84.807269 
L 127.378773 84.746227 
L 127.502762 84.552 
L 127.75074 84.886347 
L 128.246697 84.937332 
L 128.494675 84.677554 
L 128.990632 85.000109 
L 129.23861 84.85652 
L 129.362599 84.454887 
L 129.486589 84.609921 
L 129.858556 84.562405 
L 129.982545 84.225976 
L 130.230524 84.430261 
L 130.72648 84.785419 
L 131.098448 84.513155 
L 131.718394 84.547491 
L 131.842383 84.790968 
L 132.462329 83.89371 
L 132.586318 83.546876 
L 132.710307 83.698789 
L 132.958285 82.941999 
L 133.578231 82.759564 
L 133.70222 82.970786 
L 133.82621 81.332344 
L 134.198177 81.263324 
L 134.322166 81.449921 
L 134.446155 81.346911 
L 134.570145 81.077768 
L 135.19009 81.246329 
L 135.31408 81.069098 
L 135.562058 81.568191 
L 136.182004 81.454083 
L 136.429982 81.259509 
L 136.925939 81.138117 
L 137.049928 81.210952 
L 137.297906 82.544527 
L 137.669874 83.62318 
L 137.793863 83.51913 
L 138.041841 81.715595 
L 138.165831 81.728081 
L 138.537798 81.90566 
L 138.661787 82.472733 
L 138.785776 81.986819 
L 139.033755 82.387412 
L 139.529711 81.744382 
L 139.653701 81.766927 
L 139.901679 81.331651 
L 140.397636 81.576862 
L 140.521625 81.402751 
L 140.769603 80.956377 
L 141.141571 80.674401 
L 141.389549 81.1017 
L 141.513538 81.182165 
L 142.009495 82.211914 
L 142.133484 82.489034 
L 142.505452 81.224132 
L 142.877419 80.83776 
L 143.001408 81.052796 
L 143.125397 80.898109 
L 143.249387 81.202628 
L 143.373376 80.972331 
L 143.745343 80.611971 
L 143.993322 80.797874 
L 144.2413 79.898534 
L 144.613268 79.815641 
L 144.861246 80.418438 
L 144.985235 80.136115 
L 145.109224 78.918036 
L 145.72917 78.291308 
L 145.853159 77.96355 
L 145.977148 77.986094 
L 146.349116 77.90112 
L 146.473105 78.006557 
L 146.845073 76.825242 
L 147.21704 76.959814 
L 147.341029 76.81449 
L 147.465019 76.343837 
L 147.589008 76.609165 
L 147.712997 77.415553 
L 148.084964 77.226182 
L 148.208954 77.382604 
L 148.332943 76.680613 
L 148.456932 76.759344 
L 148.580921 76.510317 
L 148.952889 76.144755 
L 149.076878 76.416672 
L 149.200867 76.271349 
L 149.448845 76.343491 
L 149.820813 76.636912 
L 149.944802 76.142327 
L 150.068791 76.248111 
L 150.19278 76.586621 
L 150.316769 76.364994 
L 150.688737 76.462454 
L 150.812726 76.202329 
L 151.184694 77.491856 
L 151.80464 76.256435 
L 151.928629 76.434014 
L 152.052618 76.659803 
L 152.796553 76.706625 
L 153.29251 76.276205 
L 153.416499 75.625198 
L 153.540488 75.795147 
L 153.664477 76.252273 
L 154.284423 77.712443 
L 154.408412 77.751982 
L 154.532401 78.609007 
L 154.65639 78.639875 
L 155.152347 78.263908 
L 155.276336 79.515283 
L 155.400326 79.127177 
L 155.524315 79.918651 
L 156.020271 79.769512 
L 156.144261 79.863504 
L 156.26825 79.750783 
L 156.392239 79.009947 
L 156.764206 79.004744 
L 156.888196 78.841039 
L 157.012185 79.461871 
L 157.136174 77.658336 
L 157.260163 79.335277 
L 157.632131 79.758067 
L 157.880109 81.275117 
L 158.004098 81.09511 
L 158.128087 82.278853 
L 158.624044 82.974601 
L 158.996012 82.10717 
L 159.491968 81.62091 
L 159.615957 81.170026 
L 159.739947 81.485645 
L 160.235903 80.289069 
L 160.359892 80.516592 
L 160.73186 80.437167 
L 161.103827 80.531159 
L 161.227817 79.611356 
L 161.351806 79.570777 
L 162.343719 80.308838 
L 162.467708 79.93842 
L 163.087654 79.776796 
L 163.335633 80.546419 
L 163.7076 80.480521 
L 163.955578 79.937727 
L 164.079568 79.475744 
L 164.575524 79.582569 
L 164.823503 78.929828 
L 164.947492 79.104979 
L 165.071481 78.936418 
L 165.443448 79.120587 
L 165.567438 79.365104 
L 165.691427 78.812252 
L 165.815416 79.181629 
L 165.939405 79.071683 
L 166.311373 79.025554 
L 166.807329 77.986441 
L 167.179297 77.658336 
L 167.303286 77.916727 
L 167.427275 77.740189 
L 167.551264 77.809209 
L 167.675254 78.173384 
L 168.047221 77.975689 
L 168.419189 78.815026 
L 168.543178 76.817612 
L 168.915145 75.976194 
L 169.039134 76.410776 
L 169.163124 76.425343 
L 169.287113 76.834954 
L 169.411102 76.319559 
L 169.783069 76.118396 
L 170.031048 74.957197 
L 170.155037 74.794185 
L 170.279026 75.071999 
L 170.650994 75.046333 
L 170.774983 75.58011 
L 171.14695 75.318944 
L 171.518918 75.528779 
L 171.890885 74.898929 
L 172.014875 74.991533 
L 172.510831 74.625624 
L 172.63482 74.741813 
L 172.75881 74.4366 
L 172.882799 74.530245 
L 173.254766 74.488972 
L 173.378755 74.592675 
L 173.626734 74.457063 
L 173.750723 74.794879 
L 174.122691 74.887483 
L 174.24668 74.746669 
L 174.370669 74.921473 
L 174.494658 74.808752 
L 174.618647 75.194431 
L 175.114604 74.867367 
L 175.238593 75.048414 
L 175.362582 74.650249 
L 175.486571 75.452128 
L 175.858539 75.715722 
L 176.106517 74.874997 
L 176.230506 74.874304 
L 176.354496 74.525389 
L 176.850452 74.441455 
L 176.974441 74.111617 
L 177.098431 74.147687 
L 177.22242 73.827213 
L 177.594387 73.550787 
L 178.090344 74.18688 
L 178.462312 74.165029 
L 178.834279 73.875076 
L 178.958268 73.860162 
L 179.578214 74.144219 
L 179.826192 73.37633 
L 180.19816 73.066607 
L 180.446138 73.520959 
L 180.694117 73.12765 
L 181.314063 73.038167 
L 181.562041 72.899433 
L 182.305976 73.180369 
L 182.429965 73.428355 
L 182.925922 73.250082 
L 183.049911 73.430436 
L 183.1739 73.362109 
L 183.297889 73.022906 
L 183.669857 72.943481 
L 183.793846 73.072157 
L 184.165813 72.903595 
L 184.66177 72.333748 
L 184.909748 72.500575 
L 185.033738 73.330201 
L 185.405705 72.936545 
L 185.529694 73.300026 
L 185.653684 73.297252 
L 185.901662 72.692721 
L 186.273629 72.811338 
L 186.521608 72.303573 
L 186.645597 71.78471 
L 186.769586 71.748293 
L 187.141554 71.976856 
L 187.389532 70.951616 
L 187.513521 70.940171 
L 187.63751 70.653686 
L 188.133467 70.767448 
L 188.257456 70.409169 
L 188.505434 70.580158 
L 188.877402 70.50108 
L 189.001391 70.872538 
L 189.12538 70.765367 
L 189.745326 71.498573 
L 189.993305 71.334174 
L 190.117294 71.58979 
L 190.61325 70.626633 
L 190.73724 70.727562 
L 190.985218 71.310936 
L 191.109207 72.769024 
L 191.481175 72.300799 
L 191.605164 72.453752 
L 191.729153 73.142217 
L 191.853142 73.091232 
L 191.977131 73.506739 
L 192.473088 72.372593 
L 192.845056 74.06306 
L 193.217023 74.754646 
L 193.465001 73.803628 
L 193.71298 73.329507 
L 194.208936 72.456527 
L 194.332926 72.637227 
L 194.580904 72.628556 
L 195.076861 73.247654 
L 195.324839 73.902129 
L 195.448828 74.016931 
L 196.068774 72.973656 
L 196.192763 73.080827 
L 196.316752 73.034699 
L 196.68872 73.330894 
L 196.812709 72.837697 
L 197.184677 73.4124 
L 197.804622 72.967413 
L 198.052601 73.314593 
L 198.672547 72.914347 
L 198.796536 73.156437 
L 198.920525 73.686399 
L 199.540471 73.432863 
L 199.788449 72.086802 
L 200.408395 71.981712 
L 200.656373 71.35325 
L 201.400308 71.634185 
L 201.524298 71.65881 
L 202.020254 71.169428 
L 202.268233 70.589869 
L 202.392222 70.707099 
L 202.764189 70.894042 
L 202.888178 71.133357 
L 203.136157 70.562122 
L 203.260146 71.593952 
L 203.632113 71.682741 
L 204.500038 70.680739 
L 204.624027 70.685595 
L 204.872005 70.416799 
L 204.995994 70.384543 
L 205.61594 70.018981 
L 205.863919 70.378647 
L 206.235886 70.260724 
L 206.359875 70.385584 
L 206.483864 70.10673 
L 206.607854 70.251359 
L 206.731843 70.217717 
L 207.227799 70.351594 
L 207.475778 70.109504 
L 207.599767 70.128233 
L 208.219713 70.110545 
L 208.839659 69.971812 
L 208.963648 70.449401 
L 209.087637 70.28084 
L 209.707583 70.323848 
L 209.831572 70.005454 
L 210.07955 69.299995 
L 210.20354 68.946225 
L 210.575507 68.773848 
L 210.823485 68.157525 
L 211.071464 68.656966 
L 211.443431 68.235216 
L 211.69141 68.610143 
L 211.815399 69.011083 
L 212.435345 68.348284 
L 212.559334 68.507133 
L 212.683323 68.407939 
L 212.807312 68.530371 
L 213.551247 67.841907 
L 214.171193 66.85135 
L 214.543161 67.29495 
L 215.039117 66.647412 
L 215.287096 66.827765 
L 215.411085 66.351563 
L 215.783052 66.468793 
L 215.907042 66.187858 
L 216.031031 66.92696 
L 216.279009 66.403935 
L 216.898955 65.692579 
L 217.146933 65.157415 
L 217.890868 65.151519 
L 218.014857 64.777632 
L 218.386825 64.617742 
L 218.510814 64.907001 
L 218.758792 64.654853 
L 218.882782 65.763333 
L 219.254749 66.22809 
L 219.378738 65.677319 
L 219.502728 65.827151 
L 219.626717 66.253756 
L 219.750706 65.43731 
L 220.122673 65.178572 
L 220.246663 65.268055 
L 220.370652 64.933708 
L 220.494641 64.965963 
L 220.61863 64.881336 
L 220.990598 65.219845 
L 221.114587 65.816399 
L 221.238576 65.346439 
L 221.486554 66.120919 
L 221.858522 66.618278 
L 222.1065 66.002995 
L 222.230489 66.220113 
L 222.354478 65.747726 
L 222.726446 65.133484 
L 222.850435 65.214643 
L 222.974424 64.785263 
L 223.098414 64.989201 
L 223.222403 64.948275 
L 223.59437 64.662831 
L 223.842349 64.07911 
L 223.966338 64.015639 
L 224.090327 64.12073 
L 224.710273 63.17977 
L 224.834262 63.415617 
L 224.958251 64.315997 
L 225.330219 65.434882 
L 225.454208 65.143195 
L 225.578197 65.1536 
L 225.702186 65.46471 
L 226.322132 65.363434 
L 226.446121 65.635005 
L 226.57011 66.50521 
L 226.6941 66.121266 
L 227.066067 65.590263 
L 227.190056 65.609686 
L 227.314045 65.767842 
L 227.562024 66.451451 
L 227.933991 66.631111 
L 228.05798 66.15907 
L 228.429948 66.909618 
L 228.801915 66.883259 
L 229.049894 66.135139 
L 229.173883 65.683908 
L 229.917818 66.127855 
L 230.041807 65.723101 
L 230.165796 66.193754 
L 230.661753 65.615235 
L 230.785742 65.024925 
L 231.033721 65.469219 
L 231.529677 66.056408 
L 231.653666 65.940218 
L 231.901645 66.568334 
L 232.397601 67.140609 
L 232.64558 66.523246 
L 232.769569 66.351563 
L 233.265526 66.498967 
L 233.637493 65.372452 
L 234.009461 65.323548 
L 234.13345 65.454998 
L 234.505417 64.909082 
L 235.001374 64.694392 
L 235.373342 65.60379 
L 235.745309 66.17988 
L 235.869298 65.84692 
L 236.117277 65.967271 
L 236.241266 61.509767 
L 236.613233 61.166402 
L 236.985201 61.743186 
L 237.10919 61.140389 
L 237.605147 60.739103 
L 237.729136 60.402327 
L 237.977114 60.663493 
L 238.349082 60.531003 
L 238.473071 60.264981 
L 238.59706 60.617017 
L 238.721049 60.249374 
L 238.845038 60.506377 
L 239.217006 60.630197 
L 239.712963 58.559948 
L 240.08493 58.21901 
L 240.208919 58.296354 
L 240.332908 59.417667 
L 240.456898 58.880769 
L 240.580887 59.380209 
L 240.952854 60.365216 
L 241.448811 59.392348 
L 241.820779 59.152339 
L 242.068757 59.318472 
L 242.316735 58.797875 
L 242.688703 58.401098 
L 242.812692 58.512084 
L 243.06067 58.949788 
L 243.184659 59.171762 
L 243.804605 58.689663 
L 243.928594 58.556479 
L 244.052584 59.133263 
L 244.54854 58.455551 
L 244.920508 57.063708 
L 245.540454 56.190034 
L 245.788432 54.425692 
L 246.284389 54.437484 
L 246.532367 54.83773 
L 246.656356 54.794029 
L 247.028324 53.658843 
L 247.152313 52.436948 
L 247.276302 52.611405 
L 247.52428 51.066609 
L 247.896248 50.524508 
L 248.144226 49.372674 
L 248.268215 51.484543 
L 248.392205 50.098943 
L 248.764172 51.484543 
L 248.888161 49.651875 
L 249.01215 50.555723 
L 249.260129 53.232584 
L 249.756086 50.634454 
L 250.004064 48.995666 
L 250.128053 49.448977 
L 250.62401 48.767102 
L 250.995977 47.669374 
L 251.367945 46.908075 
L 251.491934 47.253868 
L 251.615923 47.237567 
L 251.739912 47.89655 
L 252.235869 46.8505 
L 252.483847 46.108623 
L 252.607836 45.870696 
L 252.731826 44.933205 
L 253.103793 44.256879 
L 253.227782 44.610996 
L 253.351772 44.513189 
L 253.971717 46.111051 
L 254.095707 44.668917 
L 254.219696 44.830195 
L 254.467674 47.823368 
L 254.839642 45.731962 
L 255.08762 50.047959 
L 255.211609 49.4958 
L 255.707566 52.10919 
L 255.955544 50.771107 
L 256.079533 49.342846 
L 256.203522 50.956316 
L 256.57549 50.926835 
L 256.699479 49.881479 
L 256.823468 50.199525 
L 256.947458 49.455567 
L 257.071447 50.069809 
L 257.443414 49.698351 
L 257.691393 46.70379 
L 257.815382 45.695545 
L 257.939371 46.715929 
L 258.311338 47.04993 
L 258.435328 49.053587 
L 258.559317 49.050812 
L 258.807295 45.150669 
L 259.179263 45.375764 
L 259.303252 44.816322 
L 259.427241 45.252638 
L 259.55123 45.169572 
L 260.047187 44.196183 
L 260.171176 44.464979 
L 260.295165 43.923572 
L 260.419154 43.886114 
L 260.543144 44.10011 
L 260.915111 44.147627 
L 261.0391 45.029277 
L 261.163089 44.642211 
L 261.411068 45.089973 
L 261.783035 44.705335 
L 261.907024 44.846149 
L 262.031014 44.136528 
L 262.155003 44.094561 
L 262.278992 43.849003 
L 262.774949 43.754664 
L 263.146916 42.760292 
L 263.518884 41.937256 
L 263.642873 40.859298 
L 263.766862 40.880108 
L 264.01484 41.287984 
L 264.386808 41.110058 
L 264.758775 39.905159 
L 264.882765 40.17881 
L 265.254732 39.907587 
L 265.50271 38.995761 
L 266.122656 42.010785 
L 266.246645 41.041732 
L 266.370635 42.102349 
L 266.494624 40.682413 
L 266.618613 40.73964 
L 266.99058 40.254767 
L 267.11457 40.942191 
L 267.362548 40.742068 
L 267.858505 39.379359 
L 267.982494 39.238891 
L 268.106483 38.825119 
L 268.354461 36.812444 
L 268.726429 36.484339 
L 268.850418 35.740728 
L 268.974407 35.775759 
L 269.098396 36.814525 
L 269.222386 36.789206 
L 269.594353 37.195001 
L 269.842331 35.05816 
L 269.966321 36.986901 
L 270.09031 36.665387 
L 270.586266 38.046825 
L 270.834245 36.073689 
L 270.958234 36.456593 
L 271.454191 35.097352 
L 271.702169 33.847364 
L 271.826158 34.271195 
L 272.198126 33.927829 
L 272.322115 33.114505 
L 272.446104 34.398829 
L 272.570093 34.263564 
L 272.694082 34.412703 
L 273.06605 34.603808 
L 273.190039 34.371083 
L 273.314028 33.626084 
L 273.438017 33.695451 
L 273.562007 33.609089 
L 274.057963 32.657725 
L 274.181952 30.393596 
L 274.305942 30.245151 
L 274.429931 29.886872 
L 274.925887 28.957358 
L 275.173866 31.773646 
L 275.669823 32.443035 
L 275.793812 30.773378 
L 276.04179 30.67904 
L 276.537747 33.517525 
L 276.661736 32.372281 
L 276.785725 32.879698 
L 276.909714 32.25956 
L 277.033703 33.275436 
L 277.405671 32.604313 
L 277.52966 31.210389 
L 277.653649 31.199984 
L 277.777638 29.877507 
L 277.901628 30.223647 
L 278.273595 30.176478 
L 278.769552 34.155005 
L 279.141519 35.030066 
L 279.265508 34.825435 
L 279.513487 40.061234 
L 279.637476 37.659412 
L 280.009444 38.618753 
L 280.257422 36.163865 
L 280.5054 38.511928 
L 280.877368 37.63548 
L 281.001357 38.349957 
L 281.125346 41.974368 
L 281.249335 37.882772 
L 281.373324 42.716245 
L 281.869281 46.614307 
L 282.117259 41.928239 
L 282.241249 41.928239 
L 282.613216 43.236842 
L 282.737205 42.716245 
L 282.861194 38.808124 
L 282.985184 38.828241 
L 283.109173 40.301589 
L 283.729119 44.235375 
L 283.853108 43.526795 
L 284.473054 47.826837 
L 284.597043 47.089122 
L 284.845021 47.597927 
L 285.216989 44.848577 
L 285.340978 44.845456 
L 285.464967 41.504408 
L 285.588956 41.649385 
L 285.712945 41.073641 
L 286.084913 38.223016 
L 286.208902 41.828698 
L 286.45688 40.760797 
L 286.58087 43.190713 
L 287.076826 42.701331 
L 287.200816 41.997259 
L 287.324805 42.176225 
L 287.448794 44.481627 
L 287.820761 46.944145 
L 287.944751 45.883875 
L 288.316718 51.919819 
L 288.688686 53.081365 
L 288.936664 48.67866 
L 289.060653 48.999828 
L 289.184642 48.431714 
L 289.55661 47.601048 
L 289.804588 46.312215 
L 289.928577 47.659663 
L 290.052566 45.054596 
L 290.672512 42.140154 
L 290.796502 42.251141 
L 290.920491 42.794282 
L 291.292458 43.604138 
L 291.540437 41.295268 
L 291.788415 40.8645 
L 292.284372 43.085275 
L 292.53235 42.295882 
L 292.656339 41.753435 
L 293.028307 42.886887 
L 293.152296 44.413301 
L 293.400274 40.083084 
L 293.524263 43.291295 
L 293.896231 43.045736 
L 294.02022 42.161311 
L 294.392188 44.609609 
L 294.392188 44.609609 
" style="fill:none;stroke:#1f77b4;stroke-linecap:square;stroke-width:1.5;"/>
   </g>
   <g id="patch_3">
    <path d="M 56.928125 92.78125 
L 56.928125 25.918125 
" style="fill:none;stroke:#000000;stroke-linecap:square;stroke-linejoin:miter;stroke-width:0.8;"/>
   </g>
   <g id="patch_4">
    <path d="M 305.7 92.78125 
L 305.7 25.918125 
" style="fill:none;stroke:#000000;stroke-linecap:square;stroke-linejoin:miter;stroke-width:0.8;"/>
   </g>
   <g id="patch_5">
    <path d="M 56.928125 92.78125 
L 305.7 92.78125 
" style="fill:none;stroke:#000000;stroke-linecap:square;stroke-linejoin:miter;stroke-width:0.8;"/>
   </g>
   <g id="patch_6">
    <path d="M 56.928125 25.918125 
L 305.7 25.918125 
" style="fill:none;stroke:#000000;stroke-linecap:square;stroke-linejoin:miter;stroke-width:0.8;"/>
   </g>
   <g id="text_5">
    <!-- Amazon close -->
    <defs>
     <path d="M 34.1875 63.1875 
L 20.796875 26.90625 
L 47.609375 26.90625 
z
M 28.609375 72.90625 
L 39.796875 72.90625 
L 67.578125 0 
L 57.328125 0 
L 50.6875 18.703125 
L 17.828125 18.703125 
L 11.1875 0 
L 0.78125 0 
z
" id="DejaVuSans-65"/>
     <path d="M 52 44.1875 
Q 55.375 50.25 60.0625 53.125 
Q 64.75 56 71.09375 56 
Q 79.640625 56 84.28125 50.015625 
Q 88.921875 44.046875 88.921875 33.015625 
L 88.921875 0 
L 79.890625 0 
L 79.890625 32.71875 
Q 79.890625 40.578125 77.09375 44.375 
Q 74.3125 48.1875 68.609375 48.1875 
Q 61.625 48.1875 57.5625 43.546875 
Q 53.515625 38.921875 53.515625 30.90625 
L 53.515625 0 
L 44.484375 0 
L 44.484375 32.71875 
Q 44.484375 40.625 41.703125 44.40625 
Q 38.921875 48.1875 33.109375 48.1875 
Q 26.21875 48.1875 22.15625 43.53125 
Q 18.109375 38.875 18.109375 30.90625 
L 18.109375 0 
L 9.078125 0 
L 9.078125 54.6875 
L 18.109375 54.6875 
L 18.109375 46.1875 
Q 21.1875 51.21875 25.484375 53.609375 
Q 29.78125 56 35.6875 56 
Q 41.65625 56 45.828125 52.96875 
Q 50 49.953125 52 44.1875 
z
" id="DejaVuSans-109"/>
     <path d="M 5.515625 54.6875 
L 48.1875 54.6875 
L 48.1875 46.484375 
L 14.40625 7.171875 
L 48.1875 7.171875 
L 48.1875 0 
L 4.296875 0 
L 4.296875 8.203125 
L 38.09375 47.515625 
L 5.515625 47.515625 
z
" id="DejaVuSans-122"/>
     <path d="M 30.609375 48.390625 
Q 23.390625 48.390625 19.1875 42.75 
Q 14.984375 37.109375 14.984375 27.296875 
Q 14.984375 17.484375 19.15625 11.84375 
Q 23.34375 6.203125 30.609375 6.203125 
Q 37.796875 6.203125 41.984375 11.859375 
Q 46.1875 17.53125 46.1875 27.296875 
Q 46.1875 37.015625 41.984375 42.703125 
Q 37.796875 48.390625 30.609375 48.390625 
z
M 30.609375 56 
Q 42.328125 56 49.015625 48.375 
Q 55.71875 40.765625 55.71875 27.296875 
Q 55.71875 13.875 49.015625 6.21875 
Q 42.328125 -1.421875 30.609375 -1.421875 
Q 18.84375 -1.421875 12.171875 6.21875 
Q 5.515625 13.875 5.515625 27.296875 
Q 5.515625 40.765625 12.171875 48.375 
Q 18.84375 56 30.609375 56 
z
" id="DejaVuSans-111"/>
     <path d="M 54.890625 33.015625 
L 54.890625 0 
L 45.90625 0 
L 45.90625 32.71875 
Q 45.90625 40.484375 42.875 44.328125 
Q 39.84375 48.1875 33.796875 48.1875 
Q 26.515625 48.1875 22.3125 43.546875 
Q 18.109375 38.921875 18.109375 30.90625 
L 18.109375 0 
L 9.078125 0 
L 9.078125 54.6875 
L 18.109375 54.6875 
L 18.109375 46.1875 
Q 21.34375 51.125 25.703125 53.5625 
Q 30.078125 56 35.796875 56 
Q 45.21875 56 50.046875 50.171875 
Q 54.890625 44.34375 54.890625 33.015625 
z
" id="DejaVuSans-110"/>
     <path id="DejaVuSans-32"/>
     <path d="M 9.421875 75.984375 
L 18.40625 75.984375 
L 18.40625 0 
L 9.421875 0 
z
" id="DejaVuSans-108"/>
     <path d="M 44.28125 53.078125 
L 44.28125 44.578125 
Q 40.484375 46.53125 36.375 47.5 
Q 32.28125 48.484375 27.875 48.484375 
Q 21.1875 48.484375 17.84375 46.4375 
Q 14.5 44.390625 14.5 40.28125 
Q 14.5 37.15625 16.890625 35.375 
Q 19.28125 33.59375 26.515625 31.984375 
L 29.59375 31.296875 
Q 39.15625 29.25 43.1875 25.515625 
Q 47.21875 21.78125 47.21875 15.09375 
Q 47.21875 7.46875 41.1875 3.015625 
Q 35.15625 -1.421875 24.609375 -1.421875 
Q 20.21875 -1.421875 15.453125 -0.5625 
Q 10.6875 0.296875 5.421875 2 
L 5.421875 11.28125 
Q 10.40625 8.6875 15.234375 7.390625 
Q 20.0625 6.109375 24.8125 6.109375 
Q 31.15625 6.109375 34.5625 8.28125 
Q 37.984375 10.453125 37.984375 14.40625 
Q 37.984375 18.0625 35.515625 20.015625 
Q 33.0625 21.96875 24.703125 23.78125 
L 21.578125 24.515625 
Q 13.234375 26.265625 9.515625 29.90625 
Q 5.8125 33.546875 5.8125 39.890625 
Q 5.8125 47.609375 11.28125 51.796875 
Q 16.75 56 26.8125 56 
Q 31.78125 56 36.171875 55.265625 
Q 40.578125 54.546875 44.28125 53.078125 
z
" id="DejaVuSans-115"/>
    </defs>
    <g transform="translate(139.704062 19.918125)scale(0.12 -0.12)">
     <use xlink:href="#DejaVuSans-65"/>
     <use x="68.408203" xlink:href="#DejaVuSans-109"/>
     <use x="165.820312" xlink:href="#DejaVuSans-97"/>
     <use x="227.099609" xlink:href="#DejaVuSans-122"/>
     <use x="279.589844" xlink:href="#DejaVuSans-111"/>
     <use x="340.771484" xlink:href="#DejaVuSans-110"/>
     <use x="404.150391" xlink:href="#DejaVuSans-32"/>
     <use x="435.9375" xlink:href="#DejaVuSans-99"/>
     <use x="490.917969" xlink:href="#DejaVuSans-108"/>
     <use x="518.701172" xlink:href="#DejaVuSans-111"/>
     <use x="579.882812" xlink:href="#DejaVuSans-115"/>
     <use x="631.982422" xlink:href="#DejaVuSans-101"/>
    </g>
   </g>
  </g>
  <g id="axes_2">
   <g id="patch_7">
    <path d="M 56.928125 199.240625 
L 305.7 199.240625 
L 305.7 132.3775 
L 56.928125 132.3775 
z
" style="fill:#ffffff;"/>
   </g>
   <g id="matplotlib.axis_3"/>
   <g id="matplotlib.axis_4">
    <g id="ytick_3">
     <g id="line2d_4">
      <g>
       <use style="stroke:#000000;stroke-width:0.8;" x="56.928125" xlink:href="#me277efe4b2" y="191.154581"/>
      </g>
     </g>
     <g id="text_6">
      <!-- −10 -->
      <defs>
       <path d="M 10.59375 35.5 
L 73.1875 35.5 
L 73.1875 27.203125 
L 10.59375 27.203125 
z
" id="DejaVuSans-8722"/>
      </defs>
      <g transform="translate(28.823438 194.9538)scale(0.1 -0.1)">
       <use xlink:href="#DejaVuSans-8722"/>
       <use x="83.789062" xlink:href="#DejaVuSans-49"/>
       <use x="147.412109" xlink:href="#DejaVuSans-48"/>
      </g>
     </g>
    </g>
    <g id="ytick_4">
     <g id="line2d_5">
      <g>
       <use style="stroke:#000000;stroke-width:0.8;" x="56.928125" xlink:href="#me277efe4b2" y="160.998346"/>
      </g>
     </g>
     <g id="text_7">
      <!-- 0 -->
      <g transform="translate(43.565625 164.797565)scale(0.1 -0.1)">
       <use xlink:href="#DejaVuSans-48"/>
      </g>
     </g>
    </g>
    <g id="text_8">
     <!-- price -->
     <g transform="translate(22.74375 178.253594)rotate(-90)scale(0.1 -0.1)">
      <use xlink:href="#DejaVuSans-112"/>
      <use x="63.476562" xlink:href="#DejaVuSans-114"/>
      <use x="104.589844" xlink:href="#DejaVuSans-105"/>
      <use x="132.373047" xlink:href="#DejaVuSans-99"/>
      <use x="187.353516" xlink:href="#DejaVuSans-101"/>
     </g>
    </g>
   </g>
   <g id="line2d_6">
    <path clip-path="url(#p8b8ad19fad)" d="M 68.235938 162.396275 
L 68.531567 169.989769 
L 68.827196 166.885705 
L 69.122825 161.350267 
L 70.009712 160.611873 
L 70.305341 162.175882 
L 70.60097 166.41701 
L 71.192228 158.234931 
L 72.374745 160.161793 
L 72.670374 161.579822 
L 72.966003 160.733467 
L 73.261632 164.519548 
L 74.148519 162.670352 
L 74.444148 166.074134 
L 74.739777 161.94348 
L 75.035406 159.778775 
L 75.331036 159.040903 
L 76.217923 158.471533 
L 76.513552 164.211968 
L 76.809181 163.72693 
L 77.10481 149.925179 
L 77.400439 160.042475 
L 78.582955 163.650826 
L 78.878585 161.604143 
L 79.469843 164.268008 
L 80.35673 160.947869 
L 80.652359 163.256396 
L 80.947988 161.512775 
L 81.243617 161.330215 
L 81.539246 165.001853 
L 83.313021 158.518744 
L 83.60865 162.206528 
L 84.495537 159.713644 
L 84.791166 163.840472 
L 85.086795 159.517017 
L 85.382424 161.34253 
L 85.678054 159.833572 
L 86.564941 160.788041 
L 86.86057 162.586822 
L 87.156199 161.882175 
L 87.451828 160.807318 
L 87.747457 161.749967 
L 88.634344 160.26967 
L 88.929973 161.153905 
L 89.225603 161.157357 
L 89.521232 160.605608 
L 89.816861 162.638171 
L 90.703748 156.073638 
L 90.999377 162.726517 
L 91.295006 160.75635 
L 91.590635 160.367127 
L 92.773152 164.232391 
L 93.068781 167.317111 
L 93.36441 161.69346 
L 93.660039 164.467942 
L 93.955668 162.679499 
L 94.842555 166.092945 
L 95.433813 157.305526 
L 95.729442 159.852592 
L 96.025071 165.041165 
L 96.911959 159.434323 
L 97.207588 158.935731 
L 97.503217 157.057825 
L 97.798846 166.788942 
L 98.981362 161.595611 
L 99.276991 159.462363 
L 99.572621 161.954456 
L 99.86825 159.813616 
L 100.163879 163.949464 
L 101.050766 161.06812 
L 101.346395 161.552195 
L 101.642024 163.983169 
L 101.937653 163.153317 
L 102.233282 168.389284 
L 103.12017 160.587533 
L 103.415799 159.104428 
L 103.711428 159.872549 
L 104.007057 159.907214 
L 104.302686 165.72972 
L 105.189573 162.194695 
L 105.485202 159.768517 
L 105.780831 160.575098 
L 106.07646 165.305259 
L 106.372089 159.934345 
L 107.258977 163.526791 
L 107.554606 154.196308 
L 107.850235 165.31811 
L 108.145864 161.422489 
L 108.441493 164.36295 
L 109.32838 161.268391 
L 109.624009 163.708362 
L 109.919638 164.953889 
L 110.215268 161.725163 
L 110.510897 161.276702 
L 111.693413 160.367703 
L 111.989042 161.401055 
L 112.284671 164.227456 
L 112.5803 162.37296 
L 113.467188 158.490838 
L 113.762817 163.109136 
L 114.058446 161.058045 
L 114.354075 151.146732 
L 114.649704 156.810457 
L 115.536591 165.880951 
L 115.83222 159.664204 
L 116.127849 157.151289 
L 116.423478 168.185453 
L 116.719107 163.25892 
L 117.605995 160.214507 
L 117.901624 163.898939 
L 118.197253 160.718257 
L 118.492882 161.731416 
L 118.788511 158.037272 
L 119.675398 155.688171 
L 119.971027 165.124415 
L 120.266656 156.548746 
L 120.562286 158.527902 
L 120.857915 156.463811 
L 121.744802 166.505569 
L 122.33606 159.042381 
L 122.631689 165.194757 
L 122.927318 166.357935 
L 123.814205 160.288523 
L 124.109835 164.707541 
L 124.405464 159.226276 
L 124.996722 163.455534 
L 125.883609 165.240147 
L 126.179238 161.709031 
L 126.474867 161.534809 
L 126.770496 160.10748 
L 127.066125 164.852957 
L 127.953013 161.265146 
L 128.248642 164.701994 
L 128.8399 153.323589 
L 129.135529 151.149593 
L 130.022416 163.544185 
L 130.613674 158.257481 
L 130.909304 161.19988 
L 131.204933 162.423691 
L 132.09182 160.258028 
L 132.387449 158.593856 
L 132.683078 153.09152 
L 132.978707 164.447034 
L 133.274336 165.693678 
L 134.456853 159.592547 
L 134.752482 155.469844 
L 135.048111 160.337625 
L 135.34374 159.359712 
L 136.230627 165.243111 
L 136.526256 158.196775 
L 136.821885 159.241119 
L 137.117514 158.70455 
L 137.413143 161.240611 
L 138.300031 163.539655 
L 138.59566 165.215151 
L 138.891289 164.99929 
L 139.482547 156.943232 
L 140.665063 161.786683 
L 140.960692 164.591343 
L 141.256321 156.761674 
L 141.551951 164.71715 
L 142.438838 162.416264 
L 142.734467 166.132991 
L 143.030096 158.752303 
L 143.325725 159.341998 
L 143.621354 157.097992 
L 144.508241 159.652002 
L 144.803871 162.036389 
L 145.0995 158.322377 
L 145.395129 157.983038 
L 145.690758 156.085632 
L 146.577645 160.616011 
L 146.873274 164.889698 
L 147.168903 162.742009 
L 147.464532 162.551093 
L 147.760161 160.319258 
L 148.647049 160.33983 
L 149.238307 165.733076 
L 149.829565 161.427415 
L 150.716452 159.840606 
L 151.012081 163.362352 
L 151.30771 162.784949 
L 151.603339 161.602709 
L 151.898969 162.017198 
L 152.785856 161.832093 
L 153.081485 157.329388 
L 153.377114 157.82259 
L 153.672743 159.863165 
L 153.968372 155.814707 
L 154.855259 163.964837 
L 155.150888 160.071568 
L 155.446518 160.849492 
L 155.742147 196.201392 
L 156.037776 163.685898 
L 156.924663 159.478638 
L 157.220292 160.561172 
L 157.515921 158.39121 
L 157.81155 165.71331 
L 158.107179 163.436333 
L 158.994067 161.672261 
L 159.289696 163.58306 
L 159.585325 159.996815 
L 159.880954 159.985412 
L 160.176583 162.018536 
L 161.06347 163.032918 
L 161.359099 158.281664 
L 161.654728 163.809028 
L 161.950357 159.020634 
L 162.245987 160.042501 
L 163.132874 164.48639 
L 163.428503 165.346398 
L 163.724132 168.585716 
L 164.31539 163.477258 
L 165.202277 160.434938 
L 165.497906 152.602787 
L 165.793536 164.965361 
L 166.089165 157.262382 
L 166.384794 153.445658 
L 167.271681 163.01128 
L 167.56731 163.8194 
L 167.862939 162.932855 
L 168.158568 161.571885 
L 168.454197 162.783593 
L 169.341085 160.004423 
L 169.636714 160.752253 
L 169.932343 163.599837 
L 170.227972 162.246395 
L 170.523601 163.895987 
L 171.706117 158.499026 
L 172.001746 160.26418 
L 172.297375 159.346459 
L 172.593004 163.150972 
L 173.775521 162.401246 
L 174.07115 161.974654 
L 174.366779 156.710094 
L 174.662408 165.954173 
L 175.844924 164.802309 
L 176.140554 162.342124 
L 176.436183 165.794825 
L 176.731812 165.286444 
L 177.914328 161.390226 
L 178.209957 166.2776 
L 178.505586 167.587802 
L 178.801215 160.91977 
L 179.983732 158.70228 
L 180.279361 160.606622 
L 180.57499 161.291853 
L 180.870619 168.434541 
L 181.757506 168.795579 
L 182.053135 159.880963 
L 182.348764 165.47161 
L 182.644393 166.181936 
L 182.940022 164.323087 
L 183.82691 165.222425 
L 184.122539 163.714899 
L 184.418168 147.788179 
L 184.713797 169.423407 
L 185.009426 152.33114 
L 185.896313 172.042228 
L 186.191942 155.451461 
L 186.487571 146.198233 
L 187.07883 171.142299 
L 187.965717 167.027418 
L 188.261346 168.592218 
L 188.852604 158.277667 
L 189.148233 165.036018 
L 190.33075 163.961259 
L 190.626379 161.489668 
L 190.922008 163.945615 
L 191.217637 165.347565 
L 192.104524 159.009843 
L 192.400153 161.092058 
L 192.695782 157.161803 
L 193.28704 165.621902 
L 194.173928 163.749913 
L 194.469557 162.434915 
L 194.765186 162.331403 
L 195.060815 166.160979 
L 195.356444 164.677339 
L 196.243331 159.059679 
L 196.53896 161.532856 
L 196.834589 159.344091 
L 197.130219 158.956821 
L 197.425848 155.776884 
L 198.312735 168.901834 
L 198.903993 153.787802 
L 199.199622 151.045474 
L 199.495251 172.685908 
L 200.382138 149.151793 
L 200.677768 147.17184 
L 200.973397 164.315378 
L 201.269026 144.436473 
L 202.451542 165.343981 
L 202.747171 164.957692 
L 203.0428 169.552393 
L 203.338429 151.015154 
L 203.634058 161.180646 
L 204.520946 167.326826 
L 204.816575 159.060553 
L 205.112204 165.464009 
L 205.407833 157.265674 
L 205.703462 163.238882 
L 206.590349 173.497353 
L 206.885978 165.737397 
L 207.181607 166.628997 
L 207.477237 155.190148 
L 207.772866 159.085096 
L 208.659753 149.066713 
L 209.251011 172.479076 
L 209.54664 171.479834 
L 209.842269 159.74868 
L 210.729156 164.072557 
L 211.024786 158.581513 
L 211.320415 161.457765 
L 211.616044 162.69123 
L 211.911673 164.614893 
L 212.79856 159.530673 
L 213.094189 163.925826 
L 213.389818 161.200752 
L 213.685447 159.837557 
L 213.981076 160.740381 
L 214.867964 156.134684 
L 215.163593 163.118599 
L 215.459222 159.945959 
L 215.754851 159.58283 
L 216.05048 163.107719 
L 216.937367 160.224131 
L 217.232996 164.850097 
L 217.528625 161.225966 
L 217.824254 162.324347 
L 218.119884 161.506911 
L 219.3024 163.22913 
L 219.598029 161.873636 
L 219.893658 163.188133 
L 220.189287 165.295592 
L 221.076174 166.523478 
L 221.371804 160.891645 
L 221.667433 159.846936 
L 221.963062 160.047452 
L 222.258691 161.914216 
L 223.145578 162.707865 
L 223.441207 162.079107 
L 223.736836 164.322099 
L 224.032465 159.611767 
L 224.328094 162.366388 
L 225.214982 162.908773 
L 225.510611 163.634742 
L 225.80624 157.53692 
L 226.101869 158.440901 
L 226.397498 151.47542 
L 227.284385 165.980725 
L 227.580014 155.444765 
L 227.875643 168.254488 
L 228.171272 160.705619 
L 228.466902 163.458313 
L 229.353789 157.469947 
L 229.649418 162.022047 
L 230.240676 162.919878 
L 230.536305 165.921438 
L 231.423192 161.699022 
L 231.718821 163.048283 
L 232.014451 167.984256 
L 232.31008 163.727831 
L 232.605709 162.563666 
L 233.492596 164.504714 
L 234.083854 156.01658 
L 234.379483 161.119722 
L 234.675112 159.040366 
L 235.562 165.489041 
L 235.857629 166.55997 
L 236.153258 151.722968 
L 236.448887 162.536633 
L 236.744516 154.549201 
L 237.631403 160.696349 
L 238.222661 167.10742 
L 238.51829 159.172389 
L 238.81392 164.990344 
L 239.700807 163.383345 
L 239.996436 164.841167 
L 240.292065 162.904435 
L 240.587694 159.044737 
L 240.883323 162.572793 
L 241.77021 164.682162 
L 242.065839 155.066796 
L 242.361469 161.621765 
L 242.657098 160.309416 
L 242.952727 160.112962 
L 243.839614 162.072712 
L 244.135243 164.398818 
L 244.430872 160.681396 
L 244.726501 161.392433 
L 245.02213 164.485348 
L 245.909018 161.800299 
L 246.204647 170.850701 
L 246.500276 161.642922 
L 246.795905 162.54608 
L 247.091534 164.960999 
L 248.27405 154.242437 
L 248.569679 155.37613 
L 248.865308 160.03437 
L 249.160938 158.967204 
L 250.047825 168.30389 
L 250.343454 161.430232 
L 250.639083 160.978645 
L 250.934712 157.986074 
L 251.230341 151.174016 
L 252.117228 166.128347 
L 252.412857 158.708161 
L 252.708487 163.771547 
L 253.004116 156.385962 
L 253.299745 164.014967 
L 254.186632 167.136347 
L 254.482261 161.044156 
L 254.77789 166.71056 
L 255.073519 159.495804 
L 255.369148 161.202962 
L 256.256036 155.942502 
L 256.551665 158.133692 
L 256.847294 154.153486 
L 257.142923 157.843324 
L 257.438552 156.917496 
L 258.325439 161.949637 
L 258.621068 141.228638 
L 259.212326 172.674001 
L 259.507955 156.261576 
L 260.394843 170.77614 
L 260.690472 162.936071 
L 260.986101 150.608042 
L 261.28173 159.854685 
L 261.577359 165.257263 
L 262.464246 157.486058 
L 262.759875 142.062361 
L 263.055504 180.96014 
L 263.351134 135.416733 
L 263.646763 140.631992 
L 264.53365 159.331341 
L 264.829279 173.753335 
L 265.124908 173.223578 
L 265.420537 160.998346 
L 265.716166 154.008576 
L 266.603054 163.753656 
L 266.898683 180.354791 
L 267.194312 160.898679 
L 267.78557 147.07399 
L 268.672457 159.948257 
L 268.968086 154.93319 
L 269.263715 164.802697 
L 269.854973 144.822389 
L 270.741861 157.604544 
L 271.03749 165.227333 
L 271.333119 158.053111 
L 271.924377 176.115271 
L 272.811264 161.015508 
L 273.106893 178.312905 
L 273.402522 160.245147 
L 273.698152 163.96014 
L 273.993781 174.982756 
L 274.880668 142.207635 
L 275.176297 166.462776 
L 275.767555 148.029793 
L 276.063184 163.185138 
L 276.950071 161.403918 
L 277.245701 164.678279 
L 277.54133 160.060044 
L 277.836959 148.406648 
L 278.132588 146.920638 
L 279.019475 166.94026 
L 279.315104 149.622288 
L 279.610733 153.928043 
L 279.906362 142.74413 
L 281.088879 187.02345 
L 281.680137 159.087843 
L 281.975766 164.340379 
L 282.271395 165.806976 
L 283.158282 168.279119 
L 283.74954 153.189339 
L 284.04517 175.375959 
L 284.340799 171.013967 
L 285.227686 165.926145 
L 285.523315 161.514452 
L 285.818944 160.415694 
L 286.410202 156.644254 
L 287.297089 171.326194 
L 287.592719 162.649633 
L 287.888348 162.679609 
L 288.183977 161.528151 
L 288.479606 149.16806 
L 289.662122 162.441782 
L 289.957751 163.715255 
L 290.25338 163.821595 
L 290.549009 154.981423 
L 291.435897 152.671647 
L 291.731526 174.8179 
L 292.027155 169.472895 
L 292.322784 143.845472 
L 292.618413 162.305545 
L 293.5053 165.634103 
L 293.800929 157.587922 
L 294.096558 156.162125 
L 294.392188 156.03313 
L 294.392188 156.03313 
" style="fill:none;stroke:#1f77b4;stroke-linecap:square;stroke-width:1.5;"/>
   </g>
   <g id="patch_8">
    <path d="M 56.928125 199.240625 
L 56.928125 132.3775 
" style="fill:none;stroke:#000000;stroke-linecap:square;stroke-linejoin:miter;stroke-width:0.8;"/>
   </g>
   <g id="patch_9">
    <path d="M 305.7 199.240625 
L 305.7 132.3775 
" style="fill:none;stroke:#000000;stroke-linecap:square;stroke-linejoin:miter;stroke-width:0.8;"/>
   </g>
   <g id="patch_10">
    <path d="M 56.928125 199.240625 
L 305.7 199.240625 
" style="fill:none;stroke:#000000;stroke-linecap:square;stroke-linejoin:miter;stroke-width:0.8;"/>
   </g>
   <g id="patch_11">
    <path d="M 56.928125 132.3775 
L 305.7 132.3775 
" style="fill:none;stroke:#000000;stroke-linecap:square;stroke-linejoin:miter;stroke-width:0.8;"/>
   </g>
   <g id="text_9">
    <!-- Amazon return -->
    <defs>
     <path d="M 8.5 21.578125 
L 8.5 54.6875 
L 17.484375 54.6875 
L 17.484375 21.921875 
Q 17.484375 14.15625 20.5 10.265625 
Q 23.53125 6.390625 29.59375 6.390625 
Q 36.859375 6.390625 41.078125 11.03125 
Q 45.3125 15.671875 45.3125 23.6875 
L 45.3125 54.6875 
L 54.296875 54.6875 
L 54.296875 0 
L 45.3125 0 
L 45.3125 8.40625 
Q 42.046875 3.421875 37.71875 1 
Q 33.40625 -1.421875 27.6875 -1.421875 
Q 18.265625 -1.421875 13.375 4.4375 
Q 8.5 10.296875 8.5 21.578125 
z
M 31.109375 56 
z
" id="DejaVuSans-117"/>
    </defs>
    <g transform="translate(136.579375 126.3775)scale(0.12 -0.12)">
     <use xlink:href="#DejaVuSans-65"/>
     <use x="68.408203" xlink:href="#DejaVuSans-109"/>
     <use x="165.820312" xlink:href="#DejaVuSans-97"/>
     <use x="227.099609" xlink:href="#DejaVuSans-122"/>
     <use x="279.589844" xlink:href="#DejaVuSans-111"/>
     <use x="340.771484" xlink:href="#DejaVuSans-110"/>
     <use x="404.150391" xlink:href="#DejaVuSans-32"/>
     <use x="435.9375" xlink:href="#DejaVuSans-114"/>
     <use x="477.019531" xlink:href="#DejaVuSans-101"/>
     <use x="538.542969" xlink:href="#DejaVuSans-116"/>
     <use x="577.751953" xlink:href="#DejaVuSans-117"/>
     <use x="641.130859" xlink:href="#DejaVuSans-114"/>
     <use x="682.228516" xlink:href="#DejaVuSans-110"/>
    </g>
   </g>
  </g>
  <g id="axes_3">
   <g id="patch_12">
    <path d="M 56.928125 305.7 
L 305.7 305.7 
L 305.7 238.836875 
L 56.928125 238.836875 
z
" style="fill:#ffffff;"/>
   </g>
   <g id="matplotlib.axis_5">
    <g id="xtick_1">
     <g id="line2d_7">
      <defs>
       <path d="M 0 0 
L 0 2 
" id="ma6cab165c1" style="stroke:#000000;stroke-width:0.6;"/>
      </defs>
      <g>
       <use style="stroke:#000000;stroke-width:0.6;" x="56.928125" xlink:href="#ma6cab165c1" y="305.7"/>
      </g>
     </g>
    </g>
    <g id="xtick_2">
     <g id="line2d_8">
      <g>
       <use style="stroke:#000000;stroke-width:0.6;" x="69.620568" xlink:href="#ma6cab165c1" y="305.7"/>
      </g>
     </g>
    </g>
    <g id="xtick_3">
     <g id="line2d_9">
      <g>
       <use style="stroke:#000000;stroke-width:0.6;" x="82.31301" xlink:href="#ma6cab165c1" y="305.7"/>
      </g>
     </g>
    </g>
    <g id="xtick_4">
     <g id="line2d_10">
      <g>
       <use style="stroke:#000000;stroke-width:0.6;" x="95.005453" xlink:href="#ma6cab165c1" y="305.7"/>
      </g>
     </g>
    </g>
    <g id="xtick_5">
     <g id="line2d_11">
      <g>
       <use style="stroke:#000000;stroke-width:0.6;" x="107.697895" xlink:href="#ma6cab165c1" y="305.7"/>
      </g>
     </g>
    </g>
    <g id="xtick_6">
     <g id="line2d_12">
      <g>
       <use style="stroke:#000000;stroke-width:0.6;" x="120.390338" xlink:href="#ma6cab165c1" y="305.7"/>
      </g>
     </g>
    </g>
    <g id="xtick_7">
     <g id="line2d_13">
      <g>
       <use style="stroke:#000000;stroke-width:0.6;" x="133.082781" xlink:href="#ma6cab165c1" y="305.7"/>
      </g>
     </g>
    </g>
    <g id="xtick_8">
     <g id="line2d_14">
      <g>
       <use style="stroke:#000000;stroke-width:0.6;" x="145.775223" xlink:href="#ma6cab165c1" y="305.7"/>
      </g>
     </g>
    </g>
    <g id="xtick_9">
     <g id="line2d_15">
      <g>
       <use style="stroke:#000000;stroke-width:0.6;" x="158.467666" xlink:href="#ma6cab165c1" y="305.7"/>
      </g>
     </g>
    </g>
    <g id="xtick_10">
     <g id="line2d_16">
      <g>
       <use style="stroke:#000000;stroke-width:0.6;" x="171.160108" xlink:href="#ma6cab165c1" y="305.7"/>
      </g>
     </g>
    </g>
    <g id="xtick_11">
     <g id="line2d_17">
      <g>
       <use style="stroke:#000000;stroke-width:0.6;" x="183.852551" xlink:href="#ma6cab165c1" y="305.7"/>
      </g>
     </g>
    </g>
    <g id="xtick_12">
     <g id="line2d_18">
      <g>
       <use style="stroke:#000000;stroke-width:0.6;" x="196.544994" xlink:href="#ma6cab165c1" y="305.7"/>
      </g>
     </g>
    </g>
    <g id="xtick_13">
     <g id="line2d_19">
      <g>
       <use style="stroke:#000000;stroke-width:0.6;" x="209.237436" xlink:href="#ma6cab165c1" y="305.7"/>
      </g>
     </g>
    </g>
    <g id="xtick_14">
     <g id="line2d_20">
      <g>
       <use style="stroke:#000000;stroke-width:0.6;" x="221.929879" xlink:href="#ma6cab165c1" y="305.7"/>
      </g>
     </g>
    </g>
    <g id="xtick_15">
     <g id="line2d_21">
      <g>
       <use style="stroke:#000000;stroke-width:0.6;" x="234.622321" xlink:href="#ma6cab165c1" y="305.7"/>
      </g>
     </g>
    </g>
    <g id="xtick_16">
     <g id="line2d_22">
      <g>
       <use style="stroke:#000000;stroke-width:0.6;" x="247.314764" xlink:href="#ma6cab165c1" y="305.7"/>
      </g>
     </g>
    </g>
    <g id="xtick_17">
     <g id="line2d_23">
      <g>
       <use style="stroke:#000000;stroke-width:0.6;" x="260.007207" xlink:href="#ma6cab165c1" y="305.7"/>
      </g>
     </g>
    </g>
    <g id="xtick_18">
     <g id="line2d_24">
      <g>
       <use style="stroke:#000000;stroke-width:0.6;" x="272.699649" xlink:href="#ma6cab165c1" y="305.7"/>
      </g>
     </g>
    </g>
    <g id="xtick_19">
     <g id="line2d_25">
      <g>
       <use style="stroke:#000000;stroke-width:0.6;" x="285.392092" xlink:href="#ma6cab165c1" y="305.7"/>
      </g>
     </g>
    </g>
    <g id="xtick_20">
     <g id="line2d_26">
      <g>
       <use style="stroke:#000000;stroke-width:0.6;" x="298.084534" xlink:href="#ma6cab165c1" y="305.7"/>
      </g>
     </g>
    </g>
   </g>
   <g id="matplotlib.axis_6">
    <g id="ytick_5">
     <g id="line2d_27">
      <g>
       <use style="stroke:#000000;stroke-width:0.8;" x="56.928125" xlink:href="#me277efe4b2" y="278.346903"/>
      </g>
     </g>
     <g id="text_10">
      <!-- 20 -->
      <g transform="translate(37.203125 282.146122)scale(0.1 -0.1)">
       <use xlink:href="#DejaVuSans-50"/>
       <use x="63.623047" xlink:href="#DejaVuSans-48"/>
      </g>
     </g>
    </g>
    <g id="ytick_6">
     <g id="line2d_28">
      <g>
       <use style="stroke:#000000;stroke-width:0.8;" x="56.928125" xlink:href="#me277efe4b2" y="243.612812"/>
      </g>
     </g>
     <g id="text_11">
      <!-- 40 -->
      <defs>
       <path d="M 37.796875 64.3125 
L 12.890625 25.390625 
L 37.796875 25.390625 
z
M 35.203125 72.90625 
L 47.609375 72.90625 
L 47.609375 25.390625 
L 58.015625 25.390625 
L 58.015625 17.1875 
L 47.609375 17.1875 
L 47.609375 0 
L 37.796875 0 
L 37.796875 17.1875 
L 4.890625 17.1875 
L 4.890625 26.703125 
z
" id="DejaVuSans-52"/>
      </defs>
      <g transform="translate(37.203125 247.412031)scale(0.1 -0.1)">
       <use xlink:href="#DejaVuSans-52"/>
       <use x="63.623047" xlink:href="#DejaVuSans-48"/>
      </g>
     </g>
    </g>
    <g id="text_12">
     <!-- number -->
     <defs>
      <path d="M 48.6875 27.296875 
Q 48.6875 37.203125 44.609375 42.84375 
Q 40.53125 48.484375 33.40625 48.484375 
Q 26.265625 48.484375 22.1875 42.84375 
Q 18.109375 37.203125 18.109375 27.296875 
Q 18.109375 17.390625 22.1875 11.75 
Q 26.265625 6.109375 33.40625 6.109375 
Q 40.53125 6.109375 44.609375 11.75 
Q 48.6875 17.390625 48.6875 27.296875 
z
M 18.109375 46.390625 
Q 20.953125 51.265625 25.265625 53.625 
Q 29.59375 56 35.59375 56 
Q 45.5625 56 51.78125 48.09375 
Q 58.015625 40.1875 58.015625 27.296875 
Q 58.015625 14.40625 51.78125 6.484375 
Q 45.5625 -1.421875 35.59375 -1.421875 
Q 29.59375 -1.421875 25.265625 0.953125 
Q 20.953125 3.328125 18.109375 8.203125 
L 18.109375 0 
L 9.078125 0 
L 9.078125 75.984375 
L 18.109375 75.984375 
z
" id="DejaVuSans-98"/>
     </defs>
     <g transform="translate(31.123438 291.7825)rotate(-90)scale(0.1 -0.1)">
      <use xlink:href="#DejaVuSans-110"/>
      <use x="63.378906" xlink:href="#DejaVuSans-117"/>
      <use x="126.757812" xlink:href="#DejaVuSans-109"/>
      <use x="224.169922" xlink:href="#DejaVuSans-98"/>
      <use x="287.646484" xlink:href="#DejaVuSans-101"/>
      <use x="349.169922" xlink:href="#DejaVuSans-114"/>
     </g>
    </g>
   </g>
   <g id="line2d_29">
    <path clip-path="url(#p2e77f8523b)" d="M 56.928125 290.503835 
L 59.466614 288.767131 
L 62.005102 299.187358 
L 64.543591 295.713949 
L 67.082079 285.293722 
L 69.620568 267.926676 
L 72.159056 257.506449 
L 74.697545 266.189972 
L 77.236033 281.820312 
L 79.774522 257.506449 
L 82.31301 250.559631 
L 84.851499 271.400085 
L 87.389987 274.873494 
L 89.928476 273.13679 
L 92.466964 274.873494 
L 95.005453 281.820312 
L 97.543941 269.663381 
L 100.08243 276.610199 
L 102.620918 276.610199 
L 105.159407 288.767131 
L 107.697895 299.187358 
L 110.236384 293.977244 
L 112.774872 288.767131 
L 115.313361 273.13679 
L 117.851849 281.820312 
L 120.390338 283.557017 
L 122.928827 280.083608 
L 125.467315 278.346903 
L 128.005804 274.873494 
L 130.544292 280.083608 
L 133.082781 290.503835 
L 135.621269 267.926676 
L 138.159758 290.503835 
L 140.698246 288.767131 
L 143.236735 274.873494 
L 145.775223 271.400085 
L 148.313712 276.610199 
L 150.8522 274.873494 
L 153.390689 267.926676 
L 155.929177 276.610199 
L 158.467666 273.13679 
L 161.006154 271.400085 
L 163.544643 266.189972 
L 166.083131 241.876108 
L 168.62162 259.243153 
L 171.160108 266.189972 
L 173.698597 252.296335 
L 176.237085 267.926676 
L 178.775574 264.453267 
L 181.314062 250.559631 
L 183.852551 245.349517 
L 186.39104 276.610199 
L 188.929528 283.557017 
L 191.468017 274.873494 
L 194.006505 283.557017 
L 196.544994 280.083608 
L 199.083482 287.030426 
L 201.621971 254.03304 
L 204.160459 295.713949 
L 206.698948 287.030426 
L 209.237436 274.873494 
L 211.775925 281.820312 
L 214.314413 287.030426 
L 216.852902 278.346903 
L 219.39139 287.030426 
L 221.929879 274.873494 
L 224.468367 280.083608 
L 227.006856 285.293722 
L 229.545344 260.979858 
L 232.083833 266.189972 
L 234.622321 262.716563 
L 237.16081 273.13679 
L 239.699298 278.346903 
L 242.237787 285.293722 
L 244.776276 276.610199 
L 247.314764 276.610199 
L 249.853253 269.663381 
L 252.391741 285.293722 
L 254.93023 281.820312 
L 257.468718 287.030426 
L 260.007207 281.820312 
L 262.545695 288.767131 
L 265.084184 295.713949 
L 267.622672 287.030426 
L 270.161161 299.187358 
L 272.699649 287.030426 
L 275.238138 302.660767 
L 277.776626 293.977244 
L 280.315115 299.187358 
L 282.853603 300.924062 
L 285.392092 290.503835 
L 287.93058 295.713949 
L 290.469069 273.13679 
L 293.007557 285.293722 
L 295.546046 287.030426 
L 298.084534 269.663381 
L 300.623023 274.873494 
L 303.161511 278.346903 
L 305.7 285.293722 
" style="fill:none;stroke:#1f77b4;stroke-linecap:square;stroke-width:1.5;"/>
   </g>
   <g id="patch_13">
    <path d="M 56.928125 305.7 
L 56.928125 238.836875 
" style="fill:none;stroke:#000000;stroke-linecap:square;stroke-linejoin:miter;stroke-width:0.8;"/>
   </g>
   <g id="patch_14">
    <path d="M 305.7 305.7 
L 305.7 238.836875 
" style="fill:none;stroke:#000000;stroke-linecap:square;stroke-linejoin:miter;stroke-width:0.8;"/>
   </g>
   <g id="patch_15">
    <path d="M 56.928125 305.7 
L 305.7 305.7 
" style="fill:none;stroke:#000000;stroke-linecap:square;stroke-linejoin:miter;stroke-width:0.8;"/>
   </g>
   <g id="patch_16">
    <path d="M 56.928125 238.836875 
L 305.7 238.836875 
" style="fill:none;stroke:#000000;stroke-linecap:square;stroke-linejoin:miter;stroke-width:0.8;"/>
   </g>
   <g id="text_13">
    <!-- Earthquakes -->
    <defs>
     <path d="M 9.8125 72.90625 
L 55.90625 72.90625 
L 55.90625 64.59375 
L 19.671875 64.59375 
L 19.671875 43.015625 
L 54.390625 43.015625 
L 54.390625 34.71875 
L 19.671875 34.71875 
L 19.671875 8.296875 
L 56.78125 8.296875 
L 56.78125 0 
L 9.8125 0 
z
" id="DejaVuSans-69"/>
     <path d="M 54.890625 33.015625 
L 54.890625 0 
L 45.90625 0 
L 45.90625 32.71875 
Q 45.90625 40.484375 42.875 44.328125 
Q 39.84375 48.1875 33.796875 48.1875 
Q 26.515625 48.1875 22.3125 43.546875 
Q 18.109375 38.921875 18.109375 30.90625 
L 18.109375 0 
L 9.078125 0 
L 9.078125 75.984375 
L 18.109375 75.984375 
L 18.109375 46.1875 
Q 21.34375 51.125 25.703125 53.5625 
Q 30.078125 56 35.796875 56 
Q 45.21875 56 50.046875 50.171875 
Q 54.890625 44.34375 54.890625 33.015625 
z
" id="DejaVuSans-104"/>
     <path d="M 14.796875 27.296875 
Q 14.796875 17.390625 18.875 11.75 
Q 22.953125 6.109375 30.078125 6.109375 
Q 37.203125 6.109375 41.296875 11.75 
Q 45.40625 17.390625 45.40625 27.296875 
Q 45.40625 37.203125 41.296875 42.84375 
Q 37.203125 48.484375 30.078125 48.484375 
Q 22.953125 48.484375 18.875 42.84375 
Q 14.796875 37.203125 14.796875 27.296875 
z
M 45.40625 8.203125 
Q 42.578125 3.328125 38.25 0.953125 
Q 33.9375 -1.421875 27.875 -1.421875 
Q 17.96875 -1.421875 11.734375 6.484375 
Q 5.515625 14.40625 5.515625 27.296875 
Q 5.515625 40.1875 11.734375 48.09375 
Q 17.96875 56 27.875 56 
Q 33.9375 56 38.25 53.625 
Q 42.578125 51.265625 45.40625 46.390625 
L 45.40625 54.6875 
L 54.390625 54.6875 
L 54.390625 -20.796875 
L 45.40625 -20.796875 
z
" id="DejaVuSans-113"/>
     <path d="M 9.078125 75.984375 
L 18.109375 75.984375 
L 18.109375 31.109375 
L 44.921875 54.6875 
L 56.390625 54.6875 
L 27.390625 29.109375 
L 57.625 0 
L 45.90625 0 
L 18.109375 26.703125 
L 18.109375 0 
L 9.078125 0 
z
" id="DejaVuSans-107"/>
    </defs>
    <g transform="translate(143.647187 232.836875)scale(0.12 -0.12)">
     <use xlink:href="#DejaVuSans-69"/>
     <use x="63.183594" xlink:href="#DejaVuSans-97"/>
     <use x="124.462891" xlink:href="#DejaVuSans-114"/>
     <use x="165.576172" xlink:href="#DejaVuSans-116"/>
     <use x="204.785156" xlink:href="#DejaVuSans-104"/>
     <use x="268.164062" xlink:href="#DejaVuSans-113"/>
     <use x="331.640625" xlink:href="#DejaVuSans-117"/>
     <use x="395.019531" xlink:href="#DejaVuSans-97"/>
     <use x="456.298828" xlink:href="#DejaVuSans-107"/>
     <use x="514.162109" xlink:href="#DejaVuSans-101"/>
     <use x="575.685547" xlink:href="#DejaVuSans-115"/>
    </g>
   </g>
  </g>
 </g>
 <defs>
  <clipPath id="p9d29f10cfd">
   <rect height="66.863125" width="248.771875" x="56.928125" y="25.918125"/>
  </clipPath>
  <clipPath id="p8b8ad19fad">
   <rect height="66.863125" width="248.771875" x="56.928125" y="132.3775"/>
  </clipPath>
  <clipPath id="p2e77f8523b">
   <rect height="66.863125" width="248.771875" x="56.928125" y="238.836875"/>
  </clipPath>
 </defs>
</svg>
